<svg width="35" height="35" viewBox="0 0 35 35" fill="none" xmlns="http://www.w3.org/2000/svg">
<path d="M27.7083 5.83334H7.29163C6.1313 5.83334 5.01851 6.29427 4.19803 7.11474C3.37756 7.93522 2.91663 9.04801 2.91663 10.2083V24.7917C2.91663 25.952 3.37756 27.0648 4.19803 27.8853C5.01851 28.7057 6.1313 29.1667 7.29163 29.1667H27.7083C28.8686 29.1667 29.9814 28.7057 30.8019 27.8853C31.6224 27.0648 32.0833 25.952 32.0833 24.7917V10.2083C32.0833 9.04801 31.6224 7.93522 30.8019 7.11474C29.9814 6.29427 28.8686 5.83334 27.7083 5.83334ZM26.7312 8.75L17.5 15.6771L8.26871 8.75H26.7312ZM27.7083 26.25H7.29163C6.90485 26.25 6.53392 26.0964 6.26043 25.8229C5.98694 25.5494 5.83329 25.1784 5.83329 24.7917V10.5729L16.625 18.6667C16.8774 18.856 17.1844 18.9583 17.5 18.9583C17.8155 18.9583 18.1225 18.856 18.375 18.6667L29.1666 10.5729V24.7917C29.1666 25.1784 29.013 25.5494 28.7395 25.8229C28.466 26.0964 28.0951 26.25 27.7083 26.25Z" fill="#1F1717" fill-opacity="0.6"/>
</svg>
