<svg width="35" height="35" viewBox="0 0 35 35" fill="none" xmlns="http://www.w3.org/2000/svg">
<g clip-path="url(#clip0_299_9)">
<path d="M4.3693 5.83618C1.97078 5.83618 0 7.80697 0 10.2055V30.6279C0 33.0264 1.97078 34.9972 4.3693 34.9972H30.6279C33.0264 34.9972 34.9972 33.0264 34.9972 30.6279V10.2055C34.9972 7.80697 33.0264 5.83618 30.6279 5.83618H4.3693ZM8.75285 14.5862H14.5862C16.1768 14.5862 17.5057 15.9151 17.5057 17.5057V23.3276C17.5057 24.9182 16.1768 26.2443 14.5862 26.2443H8.75285C7.16225 26.2443 5.83618 24.9182 5.83618 23.3276V17.5057C5.83618 15.9151 7.16225 14.5862 8.75285 14.5862ZM21.875 16.0388H27.7112C27.9029 16.0396 28.0927 16.0781 28.2695 16.1523C28.4463 16.2264 28.6068 16.3347 28.7417 16.471C28.8767 16.6072 28.9834 16.7688 29.0558 16.9463C29.1282 17.1239 29.1649 17.3139 29.1638 17.5057C29.1623 17.8905 29.0088 18.2591 28.7367 18.5312C28.4646 18.8033 28.096 18.9568 27.7112 18.9583H21.875C21.4902 18.9568 21.1216 18.8033 20.8495 18.5312C20.5774 18.2591 20.4239 17.8905 20.4224 17.5057C20.4212 17.3139 20.4579 17.1239 20.5304 16.9463C20.6028 16.7688 20.7095 16.6072 20.8445 16.471C20.9794 16.3347 21.1399 16.2264 21.3167 16.1523C21.4935 16.0781 21.6833 16.0396 21.875 16.0388ZM8.75285 17.5057V23.3276H14.5862V17.5057H8.75285ZM21.875 21.875H27.7112C28.096 21.8765 28.4646 22.03 28.7367 22.3021C29.0088 22.5742 29.1623 22.9428 29.1638 23.3276C29.1646 23.5192 29.1276 23.7089 29.055 23.8862C28.9824 24.0634 28.8756 24.2246 28.7407 24.3605C28.6058 24.4965 28.4455 24.6045 28.2688 24.6785C28.0922 24.7525 27.9027 24.7909 27.7112 24.7917H21.875C21.6835 24.7909 21.494 24.7525 21.3174 24.6785C21.1407 24.6045 20.9804 24.4965 20.8455 24.3605C20.7106 24.2246 20.6038 24.0634 20.5312 23.8862C20.4586 23.7089 20.4216 23.5192 20.4224 23.3276C20.4239 22.9428 20.5774 22.5742 20.8495 22.3021C21.1216 22.03 21.4902 21.8765 21.875 21.875ZM14.5862 0C12.9956 0 11.6695 1.32606 11.6695 2.91667H23.3276C23.3276 1.32606 22.013 0 20.4224 0H14.5862Z" fill="#1F1717" fill-opacity="0.6"/>
</g>
<defs>
<clipPath id="clip0_299_9">
<rect width="35" height="35" fill="white"/>
</clipPath>
</defs>
</svg>
