<svg width="35" height="35" viewBox="0 0 35 35" fill="none" xmlns="http://www.w3.org/2000/svg">
<path d="M28.4306 22.9346C27.4326 21.9092 24.5957 19.9883 22.7363 19.9883C22.3056 19.9883 21.9297 20.084 21.622 20.2822C20.7129 20.8633 19.9882 21.3145 19.6396 21.3145C19.4482 21.3145 19.2431 21.1436 18.792 20.7539L18.7168 20.6855C17.4658 19.5986 17.1992 19.3184 16.7138 18.8125L16.5908 18.6826C16.5019 18.5937 16.4267 18.5117 16.3515 18.4365C15.9277 17.999 15.6201 17.6846 14.5332 16.4541L14.4853 16.3994C13.9658 15.8115 13.624 15.4287 13.6035 15.1484C13.583 14.875 13.8222 14.4307 14.4306 13.6035C15.1689 12.6055 15.1963 11.375 14.5195 9.94629C13.9795 8.81836 13.0976 7.73828 12.3183 6.78809L12.25 6.70605C11.58 5.88574 10.8007 5.47559 9.93259 5.47559C8.96872 5.47559 8.16891 5.99512 7.74509 6.26855C7.71091 6.28906 7.67673 6.31641 7.64255 6.33691C6.69235 6.93848 6.00192 7.76563 5.74216 8.60645C5.35251 9.87109 5.09274 11.5117 6.95895 14.9229C8.57223 17.876 10.0351 19.8584 12.3593 22.2441C14.5468 24.4863 15.5175 25.2109 17.6914 26.7832C20.1113 28.5332 22.4355 29.5381 24.0625 29.5381C25.5732 29.5381 26.7627 29.5381 28.458 27.4941C30.2353 25.3477 29.497 24.0352 28.4306 22.9346Z" fill="#1F1717" fill-opacity="0.6"/>
</svg>
